<?xml version="1.0" encoding="UTF-8"?>
<svg width="20px" height="24px" viewBox="0 0 20 24" version="1.1" xmlns="http://www.w3.org/2000/svg" xmlns:xlink="http://www.w3.org/1999/xlink">
    <title>EC72CBCF-B72D-4F53-9703-52E687A0A613</title>
    <g id="Page-1" stroke="none" stroke-width="1" fill="none" fill-rule="evenodd">
        <g id="Login" transform="translate(-839.000000, -429.000000)" fill="#99A2AD" fill-rule="nonzero">
            <g id="fi-rr-lock" transform="translate(839.000000, 429.000000)">
                <path d="M17,8.4239999 L17,7 C17,3.13400669 13.8659932,0 10,0 C6.13400679,0 3,3.13400669 3,7 L3,8.4239999 C1.18005197,9.21828829 0.00261225463,11.0142763 0,13 L0,19 C0.00330611633,21.760053 2.23994685,23.9966938 5,24 L15,24 C17.7600532,23.9966938 19.9966939,21.760053 20,19 L20,13 C19.9973877,11.0142763 18.819948,9.21828829 17,8.4239999 Z M5,6.9999999 C5,4.23857615 7.23857625,1.9999999 10,1.9999999 C12.7614237,1.9999999 15,4.23857615 15,6.9999999 L15,7.9999999 L5,7.9999999 L5,6.9999999 Z M18,18.9999999 C18,20.6568541 16.6568542,21.9999999 15,21.9999999 L5,21.9999999 C3.34314575,21.9999999 2,20.6568541 2,18.9999999 L2,12.9999999 C2,11.3431456 3.34314575,9.9999999 5,9.9999999 L15,9.9999999 C16.6568542,9.9999999 18,11.3431456 18,12.9999999 L18,18.9999999 Z" id="Shape"></path>
                <path d="M10,13.9999999 C9.44771525,13.9999999 9,14.4477151 9,14.9999999 L9,16.9999999 C9,17.5522846 9.44771525,17.9999999 10,17.9999999 C10.5522847,17.9999999 11,17.5522846 11,16.9999999 L11,14.9999999 C11,14.4477151 10.5522847,13.9999999 10,13.9999999 Z" id="Path"></path>
            </g>
        </g>
    </g>
</svg>