<?xml version="1.0" encoding="UTF-8"?>
<svg width="18px" height="24px" viewBox="0 0 18 24" version="1.1" xmlns="http://www.w3.org/2000/svg" xmlns:xlink="http://www.w3.org/1999/xlink">
    <title>6DE85C66-B2AE-4AB5-B480-E18A9A366A29</title>
    <g id="Page-1" stroke="none" stroke-width="1" fill="none" fill-rule="evenodd">
        <g id="Login" transform="translate(-840.000000, -314.000000)" fill="#99A2AD" fill-rule="nonzero">
            <g id="fi-rr-following" transform="translate(840.000000, 314.000000)">
                <path d="M9,12 C12.3137085,12 15,9.3137085 15,6 C15,2.6862915 12.3137085,0 9,0 C5.6862915,0 3,2.6862915 3,6 C3.00330738,9.31233757 5.68766243,11.9966926 9,12 Z M9,2 C11.209139,2 13,3.790861 13,6 C13,8.209139 11.209139,10 9,10 C6.790861,10 5,8.209139 5,6 C5,3.790861 6.790861,2 9,2 Z" id="Shape"></path>
                <path d="M9,14 C4.03194995,14.006061 0.0060609562,18.0319499 0,23 C0,23.5522847 0.44771525,24 1,24 C1.55228475,24 2,23.5522847 2,23 C2,19.1340068 5.13400675,16 9,16 C12.8659932,16 16,19.1340068 16,23 C16,23.5522847 16.4477153,24 17,24 C17.5522847,24 18,23.5522847 18,23 C17.993939,18.0319499 13.9680501,14.006061 9,14 Z" id="Path"></path>
            </g>
        </g>
    </g>
</svg>