<svg width="60px" height="60px" viewBox="0 0 60 60" version="1.1" xmlns="http://www.w3.org/2000/svg" xmlns:xlink="http://www.w3.org/1999/xlink">
    <g id="02_VD_Web" stroke="none" stroke-width="1" fill="none" fill-rule="evenodd">
        <g id="04_Documents-Checklist" transform="translate(-610.000000, -350.000000)" fill="#FFCB05" fill-rule="nonzero">
            <g id="Group-29" transform="translate(310.000000, 194.000000)">
                <g id="Group-28" transform="translate(129.000000, 102.000000)">
                    <g id="Group-27" transform="translate(167.000000, 54.000000)">
                        <path d="M34,48.2318182 C34.7531156,48.2318182 35.3636364,48.842339 35.3636364,49.5954545 L35.3636364,49.5954545 L35.3636364,58.6363636 C35.3636364,59.3894792 34.7531156,60 34,60 C33.2468844,60 32.6363636,59.3894792 32.6363636,58.6363636 L32.6363636,58.6363636 L32.6363636,49.5954545 C32.6363636,48.842339 33.2468844,48.2318182 34,48.2318182 Z M41.4623149,46.7732026 L41.6069232,46.7848997 C42.0897547,46.8498946 42.5012351,47.16754 42.6863636,47.6181818 L42.6863636,47.6181818 L46.0681818,55.9909091 C46.3490755,56.6875288 46.0137433,57.4801323 45.3181818,57.7636364 C45.1575624,57.8271187 44.9863455,57.8595111 44.8136364,57.8591081 C44.2581679,57.8618729 43.7565282,57.5274465 43.5454545,57.0136364 L43.5454545,57.0136364 L40.1636364,48.6545455 C39.9785078,48.2039036 40.0478565,47.6887285 40.3455595,47.3030816 C40.6432625,46.9174346 41.1240917,46.7199048 41.6069232,46.7848997 Z M25.0954545,47.5090909 C25.3895978,46.8166601 26.1889469,46.4932593 26.8818182,46.7863636 C27.574249,47.0805069 27.8976498,47.879856 27.6045455,48.5727273 L27.6045455,48.5727273 L24.0727273,56.8909091 C23.8593193,57.3947795 23.3653821,57.7222813 22.8181818,57.7227273 C22.6350301,57.7260627 22.4534114,57.6888076 22.2863636,57.6136364 C21.5939328,57.3194931 21.270532,56.520144 21.5636364,55.8272727 L21.5636364,55.8272727 Z M20.1454545,42.4830023 C20.5090512,42.4830023 20.857591,42.62821 21.1136364,42.8863636 C21.37179,43.142409 21.5169977,43.4909488 21.5169977,43.8545455 C21.5169977,44.2181421 21.37179,44.5666819 21.1136364,44.8227273 L21.1136364,44.8227273 L14.7181818,51.2181818 C14.460838,51.4734362 14.1124586,51.6157319 13.75,51.6136592 C13.3875414,51.6157319 13.039162,51.4734362 12.7818182,51.2181818 C12.5236646,50.9621365 12.3784568,50.6135966 12.3784568,50.25 C12.3784568,49.8864034 12.5236646,49.5378635 12.7818182,49.2818182 L12.7818182,49.2818182 L19.1772727,42.8863636 C19.4333181,42.62821 19.7818579,42.4830023 20.1454545,42.4830023 Z M47.5001663,42.5319844 C47.9726718,42.405377 48.4768292,42.5404656 48.8227273,42.8863636 L48.8227273,42.8863636 L55.2181818,49.2818182 C55.4763354,49.5378635 55.6215432,49.8864034 55.6215432,50.25 C55.6215432,50.6135966 55.4763354,50.9621365 55.2181818,51.2181818 C54.960838,51.4734362 54.6124586,51.6157319 54.25,51.6136592 C53.8875414,51.6157319 53.539162,51.4734362 53.2818182,51.2181818 L53.2818182,51.2181818 L46.8863636,44.8227273 C46.5404656,44.4768292 46.405377,43.9726718 46.5319844,43.5001663 C46.6585919,43.0276607 47.0276607,42.6585919 47.5001663,42.5319844 Z M15.5636364,36.7772727 C16.2490181,36.4700396 17.053801,36.7748816 17.3636364,37.4590909 C17.6708695,38.1444726 17.3660275,38.9492556 16.6818182,39.2590909 L16.6818182,39.2590909 L8.43181818,42.9545455 C8.25623609,43.0345485 8.06567483,43.076379 7.87272727,43.0773156 C7.3320179,43.0815447 6.83986271,42.7659234 6.61818182,42.2727273 C6.47147507,41.9418376 6.46233931,41.5661968 6.59278734,41.2285666 C6.72323537,40.8909364 6.98256358,40.6190203 7.31363636,40.4727273 L7.31363636,40.4727273 Z M51.5354473,36.3536785 C51.8736186,36.2178976 52.2520682,36.2231204 52.5863636,36.3681818 L52.5863636,36.3681818 L60.9045455,39.8863636 L60.9590909,39.8863636 C61.552558,40.1390559 61.8877987,40.7730035 61.7625668,41.4057542 C61.6373348,42.038505 61.085889,42.4969625 60.4409091,42.5045455 C60.2581164,42.504194 60.0772601,42.4670953 59.9090909,42.3954545 L59.9090909,42.3954545 L51.5227273,38.8772727 C51.1877275,38.7385964 50.9217464,38.4722183 50.7835698,38.1370122 C50.6453932,37.801806 50.6463986,37.4253725 50.7863636,37.0909091 C50.9275206,36.7549464 51.1972761,36.4894594 51.5354473,36.3536785 Z M62.6363636,28.6363636 C63.3894792,28.6363636 64,29.2468844 64,30 C64,30.7531156 63.3894792,31.3636364 62.6363636,31.3636364 L62.6363636,31.3636364 L53.5954545,31.3636364 C52.842339,31.3636364 52.2318182,30.7531156 52.2318182,30 C52.2318182,29.2468844 52.842339,28.6363636 53.5954545,28.6363636 L53.5954545,28.6363636 Z M14.4045455,28.6363636 C15.157661,28.6363636 15.7681818,29.2468844 15.7681818,30 C15.7681818,30.7531156 15.157661,31.3636364 14.4045455,31.3636364 L14.4045455,31.3636364 L5.36363636,31.3636364 C4.6105208,31.3636364 4,30.7531156 4,30 C4,29.2468844 4.6105208,28.6363636 5.36363636,28.6363636 L5.36363636,28.6363636 Z M6.6742732,17.7157593 C7.08833046,17.4161387 7.63516873,17.3732089 8.09090909,17.6045455 L8.09090909,17.6045455 L16.4772727,21.1227273 C16.8122725,21.2614036 17.0782536,21.5277817 17.2164302,21.8629878 C17.3546068,22.198194 17.3536014,22.5746275 17.2136364,22.9090909 C16.9983113,23.4175518 16.4976065,23.7459711 15.9454545,23.7409668 C15.7629879,23.7375026 15.5827086,23.7005223 15.4136364,23.6318182 L15.4136364,23.6318182 L7.09545455,20.1136364 L7.04090909,20.1136364 C6.55623862,19.9514315 6.20296246,19.5318233 6.12571402,19.026602 C6.04846558,18.5213807 6.26021593,18.0153798 6.6742732,17.7157593 Z M59.5,17.0454545 C59.9487708,16.8089636 60.4917238,16.8411254 60.9094371,17.1289425 C61.3271505,17.4167597 61.5505764,17.9126561 61.4894223,18.4162267 C61.4282682,18.9197973 61.092643,19.347802 60.6181818,19.5272727 L60.6181818,19.5272727 L52.4363636,23.2227273 C52.2607815,23.3027303 52.0702203,23.3445608 51.8772727,23.3454545 C51.3415008,23.3443367 50.8560294,23.0295805 50.6363636,22.5409091 C50.3291305,21.8555274 50.6339725,21.0507444 51.3181818,20.7409091 L51.3181818,20.7409091 Z M53.2818182,8.78181818 C53.6277162,8.4359201 54.1318736,8.30083152 54.6043792,8.42743898 C55.0768847,8.55404645 55.4459535,8.92311529 55.572561,9.39562083 C55.6991685,9.86812637 55.5640799,10.3722838 55.2181818,10.7181818 L55.2181818,10.7181818 L48.8227273,17.1136364 C48.5666819,17.37179 48.2181421,17.5169977 47.8545455,17.5169977 C47.4909488,17.5169977 47.142409,17.37179 46.8863636,17.1136364 C46.62821,16.857591 46.4830023,16.5090512 46.4830023,16.1454545 C46.4830023,15.7818579 46.62821,15.4333181 46.8863636,15.1772727 L46.8863636,15.1772727 Z M13.3956208,8.427439 C13.8681264,8.30083153 14.3722838,8.43592011 14.7181818,8.78181818 L14.7181818,8.78181818 L21.1136364,15.1772727 C21.37179,15.4333181 21.5169977,15.7818579 21.5169977,16.1454545 C21.5169977,16.5090512 21.37179,16.857591 21.1136364,17.1136364 C20.857591,17.37179 20.5090512,17.5169977 20.1454545,17.5169977 C19.7818579,17.5169977 19.4333181,17.37179 19.1772727,17.1136364 L19.1772727,17.1136364 L12.7818182,10.7181818 C12.4359201,10.3722838 12.3008315,9.86812637 12.427439,9.39562084 C12.5540465,8.9231153 12.9231153,8.55404647 13.3956208,8.427439 Z M43.9272727,3.10909091 C44.221416,2.4166601 45.0207651,2.09325932 45.7136364,2.38636364 C46.4060672,2.68050693 46.729468,3.47985603 46.4363636,4.17272727 L46.4363636,4.17272727 L42.9045455,12.4909091 C42.6911375,12.9947795 42.1972003,13.3222813 41.65,13.3227273 C41.4668483,13.3260627 41.2852296,13.2888076 41.1181818,13.2136364 C40.425751,12.9194931 40.1023502,12.120144 40.3954545,11.4272727 L40.3954545,11.4272727 Z M22.71223,2.31137958 C23.3801195,2.04061359 24.1433879,2.33630864 24.4545455,2.98636364 L24.4545455,2.98636364 L27.8772727,11.3454545 C28.0172378,11.6799179 28.0182431,12.0563514 27.8800665,12.3915576 C27.7418899,12.7267638 27.4759088,12.9931418 27.1409091,13.1318182 C26.9754888,13.195115 26.7998439,13.2274706 26.6227273,13.22729 C26.0672588,13.2300547 25.5656191,12.8956283 25.3545455,12.3818182 L25.3545455,12.3818182 L21.9318182,4.00909091 C21.7024601,3.32587399 22.0443406,2.58214556 22.71223,2.31137958 Z M34,-1.00364161e-13 C34.7531156,-1.00364161e-13 35.3636364,0.610520796 35.3636364,1.36363636 L35.3636364,1.36363636 L35.3636364,10.4045455 C35.3636364,11.157661 34.7531156,11.7681818 34,11.7681818 C33.2468844,11.7681818 32.6363636,11.157661 32.6363636,10.4045455 L32.6363636,10.4045455 L32.6363636,1.36363636 C32.6363636,0.610520796 33.2468844,-1.00364161e-13 34,-1.00364161e-13 Z" id="Combined-Shape"></path>
                    </g>
                </g>
            </g>
        </g>
    </g>
</svg>