<?xml version="1.0" encoding="UTF-8"?>
<svg width="21px" height="16px" viewBox="0 0 21 16" version="1.1" xmlns="http://www.w3.org/2000/svg" xmlns:xlink="http://www.w3.org/1999/xlink">
    <title>754A9C2D-CD6E-4E0E-B814-723CF546F2A9</title>
    <g id="20-Details" stroke="none" stroke-width="1" fill="none" fill-rule="evenodd">
        <g id="04-login-eye-visible" transform="translate(-283.000000, -532.000000)" fill="#0F1C8E" fill-rule="nonzero">
            <g id="fi-rr-eye" transform="translate(283.000000, 532.000000)">
                <path d="M19.5518726,5.68190476 C18.2489994,3.5600107 15.2854039,0 10.0839914,0 C4.88257885,0 1.91898334,3.5600107 0.616110146,5.68190476 C-0.205370049,7.0105811 -0.205370049,8.6894189 0.616110146,10.0180952 C1.91898334,12.1399893 4.88257885,15.7 10.0839914,15.7 C15.2854039,15.7 18.2489994,12.1399893 19.5518726,10.0180952 C20.3733528,8.6894189 20.3733528,7.0105811 19.5518726,5.68190476 Z M18.1196361,9.13859283 C17.0007276,10.9580792 14.4680631,14.0199572 10.0839914,14.0199572 C5.69991967,14.0199572 3.16725514,10.9580792 2.04834664,9.13859283 C1.56029486,8.34884915 1.56029486,7.35115085 2.04834664,6.56140717 C3.16725514,4.74192081 5.69991967,1.6800428 10.0839914,1.6800428 C14.4680631,1.6800428 17.0007276,4.73856073 18.1196361,6.56140717 C18.6076879,7.35115085 18.6076879,8.34884915 18.1196361,9.13859283 Z" id="Shape"></path>
                <path d="M10.0839914,3.64989299 C7.76433632,3.64989299 5.88388436,5.53034495 5.88388436,7.85 C5.88388436,10.169655 7.76433632,12.050107 10.0839914,12.050107 C12.4036464,12.050107 14.2840984,10.169655 14.2840984,7.85 C14.2813212,5.53149628 12.4024951,3.6526702 10.0839914,3.64989299 Z M10.0839914,10.3700642 C8.69219834,10.3700642 7.56392716,9.24179303 7.56392716,7.85 C7.56392716,6.45820697 8.69219834,5.32993579 10.0839914,5.32993579 C11.4757844,5.32993579 12.6040556,6.45820697 12.6040556,7.85 C12.6040556,8.51836258 12.3385496,9.15935077 11.8659459,9.63195449 C11.3933421,10.1045582 10.7523539,10.3700642 10.0839914,10.3700642 Z" id="Shape"></path>
            </g>
        </g>
    </g>
</svg>