<?xml version="1.0" encoding="UTF-8"?>
<svg width="20px" height="19px" viewBox="0 0 20 19" version="1.1" xmlns="http://www.w3.org/2000/svg" xmlns:xlink="http://www.w3.org/1999/xlink">
    <title>A20742C6-28CB-4282-BE3C-E749F2B432FA</title>
    <g id="20-Details" stroke="none" stroke-width="1" fill="none" fill-rule="evenodd">
        <g id="03-login" transform="translate(-283.000000, -531.000000)" fill="#0F1C8E" fill-rule="nonzero">
            <g id="fi-rr-eye-crossed" transform="translate(283.000000, 531.000000)">
                <path d="M19.3890215,7.0004998 C18.6370033,5.76906081 17.6884104,4.66907571 16.5808952,3.74420619 L18.9133644,1.411737 C19.2290577,1.08487569 19.2245428,0.565313265 18.903217,0.243987478 C18.5818912,-0.0773383086 18.0623288,-0.0818531656 17.7354675,0.233840051 L15.1989072,2.7737324 C13.6264828,1.83976294 11.8288385,1.35297896 10,1.36592064 C4.842744,1.36592064 1.90383281,4.89627937 0.610978454,7.0004998 C-0.203659485,8.31810935 -0.203659485,9.98296382 0.610978454,11.3005734 C1.3629967,12.5320124 2.31158963,13.6319975 3.41910476,14.556867 L1.08663557,16.8893362 C0.870085306,17.0984874 0.783237471,17.4082088 0.859472095,17.6994588 C0.935706719,17.9907088 1.16315992,18.218162 1.45440988,18.2943966 C1.74565983,18.3706312 2.05538127,18.2837834 2.26453251,18.0672331 L4.80692394,15.5248417 C6.37739838,16.4586611 8.17290259,16.9462756 10,16.9351525 C15.157256,16.9351525 18.0961672,13.4047938 19.3890215,11.3005734 C20.2036595,9.98296382 20.2036595,8.31810935 19.3890215,7.0004998 Z M2.03045257,10.4283965 C1.54646586,9.64523073 1.54646586,8.65584243 2.03045257,7.87267667 C3.14170753,6.06834514 5.65327705,3.03197006 10,3.03197006 C11.3830487,3.0242217 12.7466795,3.3575473 13.9701958,4.00244385 L12.293317,5.6793226 C10.6443684,4.58456931 8.4523167,4.80374042 7.05276027,6.20329686 C5.65320384,7.60285329 5.43403273,9.79490497 6.52878602,11.4438536 L4.60449893,13.3681407 C3.58412981,12.5432125 2.71339746,11.5487741 2.03045257,10.4283965 Z M12.4990741,9.15053658 C12.4990741,10.5307371 11.3802005,11.6496107 10,11.6496107 C9.62889847,11.648174 9.26293814,11.5627358 8.92956324,11.3997033 L12.2491667,8.08009983 C12.4121992,8.41347472 12.4976374,8.77943506 12.4990741,9.15053658 L12.4990741,9.15053658 Z M7.50092586,9.15053658 C7.50092586,7.77033605 8.61979946,6.65146244 10,6.65146244 C10.3711015,6.65289917 10.7370619,6.73833738 11.0704368,6.90136986 L7.75083327,10.2209733 C7.5878008,9.88759845 7.50236259,9.52163811 7.50092586,9.15053658 L7.50092586,9.15053658 Z M17.9695474,10.4283965 C16.8582925,12.232728 14.346723,15.2691031 10,15.2691031 C8.61695129,15.2768515 7.25332055,14.9435259 6.02980422,14.2986293 L7.70668296,12.6217506 C9.35563161,13.7165039 11.5476833,13.4973327 12.9472397,12.0977763 C14.3467962,10.6982199 14.5659673,8.5061682 13.471214,6.85721955 L15.3955011,4.93293246 C16.4158702,5.75786071 17.2866025,6.75229905 17.9695474,7.87267667 C18.4535341,8.65584243 18.4535341,9.64523073 17.9695474,10.4283965 L17.9695474,10.4283965 Z" id="Shape"></path>
            </g>
        </g>
    </g>
</svg>